<?xml version="1.0" encoding="UTF-8"?>
<svg id="Layer_2" data-name="Layer 2" xmlns="http://www.w3.org/2000/svg" viewBox="0 0 236.62 405.12">
  <defs>
    <style>
      .cls-1 {
        fill: #fdfdfd;
      }

      .cls-1, .cls-2, .cls-3 {
        stroke-width: 0px;
      }

      .cls-2 {
        fill: #d7d7d7;
      }

      .cls-3 {
        fill: #233238;
      }
    </style>
  </defs>
  <g id="Layer_1-2" data-name="Layer 1">
    <g>
      <path class="cls-3" d="M236.55,203.01c0,55.36-.1,110.73.06,166.09.05,15.87-11.06,30.82-27.09,34.94-2.62.67-5.29,1.04-8.01,1.04-55.4,0-110.81.13-166.21-.08-14.24-.05-24.71-7.18-31.47-19.69C1.06,380.17,0,374.62,0,368.8.01,258.16,0,147.52,0,36.88,0,19.7,12.11,4.57,28.83.83c2.26-.51,4.56-.74,6.88-.74,54.57,0,109.15.13,163.72-.09,14.8-.06,28.96,9.12,34.43,22.89,1.8,4.52,2.72,9.16,2.72,14.03-.02,51.83-.02,103.66-.03,155.49,0,3.53,0,7.07,0,10.6h0ZM215.84,208.47h0c0-51.08,0-102.17,0-153.25,0-2.76,0-2.75-2.82-2.75-62.9,0-125.8,0-188.7,0-3.16,0-3.16-.01-3.16,3.19,0,102.3,0,204.6-.02,306.9,0,1.29.25,1.65,1.61,1.65,63.99-.04,127.98-.03,191.98,0,1.13,0,1.12-.47,1.12-1.31-.01-51.48-.01-102.95-.01-154.43Z"/>
      <path class="cls-1" d="M215.84,208.47c0,51.48,0,102.95.01,154.43,0,.84.01,1.31-1.12,1.31-63.99-.04-127.98-.04-191.98,0-1.36,0-1.61-.37-1.61-1.65.03-102.3.02-204.6.02-306.9,0-3.2,0-3.19,3.16-3.19,62.9,0,125.8,0,188.7,0,2.82,0,2.82,0,2.82,2.75,0,51.08,0,102.17,0,153.25h0ZM113.28,155.58c15.4,0,30.79,0,46.19,0,9.12,0,18.23-.01,27.35.02,1,0,1.4-.22,1.35-1.3-.09-1.74-.03-3.49-.03-5.23,0-4.19-.01-8.37.01-12.56,0-.85-.1-1.24-1.13-1.42-1.3-.23-2.5.11-3.75.11-47.74-.03-95.48-.02-143.22-.06-1.31,0-1.7.3-1.68,1.65.08,5.67.03,11.34.03,17.01q0,1.79,1.74,1.79c24.38,0,48.76,0,73.14,0ZM75.85,217.11c-11.99,0-23.99.01-35.98-.02-1.11,0-1.5.22-1.49,1.43.05,10.03.05,20.06,0,30.09,0,1.22.35,1.52,1.54,1.52,23.86-.03,47.71-.03,71.57,0,1.15,0,1.57-.24,1.56-1.49-.05-10.03-.05-20.06,0-30.09,0-1.17-.33-1.45-1.47-1.45-11.91.04-23.81.03-35.72.03ZM161.27,217.11c-11.95,0-23.9.02-35.85-.03-1.17,0-1.45.33-1.45,1.47.04,10.03.04,20.06,0,30.09,0,1.13.26,1.48,1.44,1.48,23.94-.04,47.88-.03,71.82,0,1.11,0,1.38-.34,1.38-1.41-.04-10.07-.04-20.15,0-30.22,0-1.23-.43-1.41-1.51-1.41-11.95.03-23.9.02-35.85.02ZM75.66,196.17c11.99,0,23.98-.01,35.98.02,1.08,0,1.4-.3,1.39-1.39-.05-5.63-.05-11.25,0-16.88,0-1.06-.25-1.42-1.37-1.42-23.98.03-47.97.03-71.95,0-1.03,0-1.34.29-1.33,1.32.05,5.58.06,11.16,0,16.75-.01,1.23.28,1.62,1.57,1.61,11.9-.05,23.81-.03,35.72-.03Z"/>
      <path class="cls-2" d="M113.28,155.58c-24.38,0-48.76,0-73.14,0q-1.74,0-1.74-1.79c0-5.67.05-11.34-.03-17.01-.02-1.35.37-1.65,1.68-1.65,47.74.03,95.48.02,143.22.06,1.25,0,2.45-.34,3.75-.11,1.03.19,1.14.58,1.13,1.42-.03,4.19-.01,8.37-.01,12.56,0,1.74-.06,3.49.03,5.23.06,1.08-.35,1.31-1.35,1.3-9.11-.03-18.23-.02-27.35-.02-15.4,0-30.79,0-46.19,0Z"/>
      <path class="cls-2" d="M75.85,217.11c11.91,0,23.81.02,35.72-.03,1.14,0,1.48.27,1.47,1.45-.05,10.03-.05,20.06,0,30.09,0,1.26-.41,1.5-1.56,1.49-23.86-.03-47.71-.03-71.57,0-1.19,0-1.54-.29-1.54-1.52.05-10.03.05-20.06,0-30.09,0-1.2.39-1.43,1.49-1.43,11.99.04,23.99.02,35.98.02Z"/>
      <path class="cls-2" d="M161.27,217.11c11.95,0,23.9.01,35.85-.02,1.08,0,1.52.18,1.51,1.41-.05,10.07-.04,20.15,0,30.22,0,1.07-.27,1.41-1.38,1.41-23.94-.03-47.88-.03-71.82,0-1.18,0-1.45-.35-1.44-1.48.04-10.03.04-20.06,0-30.09,0-1.14.27-1.48,1.45-1.47,11.95.04,23.9.03,35.85.03Z"/>
      <path class="cls-2" d="M75.66,196.17c-11.91,0-23.81-.02-35.72.03-1.29,0-1.59-.38-1.57-1.61.07-5.58.05-11.16,0-16.75,0-1.04.29-1.32,1.33-1.32,23.98.02,47.97.02,71.95,0,1.12,0,1.38.36,1.37,1.42-.05,5.63-.05,11.25,0,16.88,0,1.09-.31,1.4-1.39,1.39-11.99-.04-23.98-.02-35.98-.02Z"/>
    </g>
  </g>
</svg>